<svg xmlns="http://www.w3.org/2000/svg" viewBox="0 0 42.62 42.61"><title>fb</title><g id="Layer_2" data-name="Layer 2"><g id="Layer_1-2" data-name="Layer 1"><path d="M23.34,37.5H17.47a.91.91,0,0,1-.91-.91V21H14.12a.92.92,0,0,1-.91-.92V15.26a.91.91,0,0,1,.91-.91h2.44V10.18A6.39,6.39,0,0,1,23,3.79H28.5a.91.91,0,0,1,.91.91V9.54a.91.91,0,0,1-.91.91H25.21a1,1,0,0,0-1,1v2.94h4.17a.92.92,0,0,1,.67.29.9.9,0,0,1,.24.7l-.41,4.84A.92.92,0,0,1,28,21H24.25V36.59A.9.9,0,0,1,23.34,37.5Zm-5.78-1h5.69V20h4.68l.4-4.67H23.25V11.41a2,2,0,0,1,2-2h3.2V4.79H23a5.4,5.4,0,0,0-5.39,5.39v5.17H14.21V20h3.35Z"/><path d="M42.62,42.61H0V0H42.62ZM1,41.61H41.62V1H1Z"/></g></g></svg>