<svg xmlns="http://www.w3.org/2000/svg" viewBox="0 0 42.61 42.61"><defs><style>.cls-1{fill:none;stroke:#000;stroke-miterlimit:10;}</style></defs><title>insta</title><g id="Layer_2" data-name="Layer 2"><g id="Layer_1-2" data-name="Layer 1"><path class="cls-1" d="M30.29,10.15a2,2,0,1,0,2,2A2,2,0,0,0,30.29,10.15Zm-8.92,2.57a8.43,8.43,0,1,0,8.42,8.43A8.44,8.44,0,0,0,21.37,12.72Zm0,13.83a5.4,5.4,0,1,1,5.39-5.4A5.4,5.4,0,0,1,21.37,26.55Zm17-12.4A10.28,10.28,0,0,0,28.09,3.87H14.52A10.28,10.28,0,0,0,4.24,14.15V27.72A10.28,10.28,0,0,0,14.52,38H28.09A10.27,10.27,0,0,0,38.37,27.72ZM35.15,27.72a7.07,7.07,0,0,1-7.06,7.06H14.52a7.07,7.07,0,0,1-7.06-7.06V14.15a7.06,7.06,0,0,1,7.06-7.06H28.09a7.06,7.06,0,0,1,7.06,7.06Z"/><path d="M42.61,42.61H0V0H42.61ZM1,41.61H41.61V1H1Z"/></g></g></svg>