<svg xmlns="http://www.w3.org/2000/svg" viewBox="0 0 42.62 42.61"><defs><style>.cls-1{fill:none;stroke:#000;stroke-miterlimit:10;}.cls-2{fill:#fff;}</style></defs><title>pic_1</title><g id="Layer_2" data-name="Layer 2"><g id="Layer_1-2" data-name="Layer 1"><path d="M42.62,42.61H0V0H42.62ZM1,41.61H41.62V1H1Z"/><polygon class="cls-1" points="37.62 34.15 5 34.15 5 24.11 13.66 16.52 23.89 25.15 29.44 20.67 37.62 27.84 37.62 34.15"/><circle class="cls-1" cx="24.63" cy="12.6" r="4.15"/><circle class="cls-2" cx="35.55" cy="7.37" r="4.54"/><path d="M35.55,12.21A4.85,4.85,0,1,1,40.4,7.37,4.85,4.85,0,0,1,35.55,12.21Zm0-9.07a4.23,4.23,0,1,0,4.22,4.23A4.23,4.23,0,0,0,35.55,3.14Z"/><polygon points="36.65 8.01 35.95 8.38 35.95 5.52 35.33 5.52 35.33 5.52 35.33 8.38 34.63 8.01 34.33 8.56 35.64 9.36 36.95 8.56 36.65 8.01"/></g></g></svg>