<svg xmlns="http://www.w3.org/2000/svg" viewBox="0 0 42.62 42.61"><defs><style>.cls-1{fill:#fff;}</style></defs><title>pin</title><g id="Layer_2" data-name="Layer 2"><g id="Layer_1-2" data-name="Layer 1"><path class="cls-1" d="M23.39,29.07c-1.95-.15-2.77-1.12-4.3-2.05-.68,3.57-1.48,7-3.38,9.38A1,1,0,0,1,14,35.86c-.29-5.69,1.68-10.21,2.65-15-1.84-3.08.22-9.3,4.09-7.77C25.49,15,16.6,24.59,22.57,25.79c6.23,1.26,8.77-10.8,4.91-14.72-5.58-5.67-16.25-.13-14.93,8,.24,1.54,1.54,2.25,1.37,3.77A1.36,1.36,0,0,1,12,23.9C9.51,22.75,8.75,20.22,8.86,17c.23-6.15,5.53-10.45,10.85-11,6.72-.75,13,2.47,13.9,8.8,1,7.14-3,14.87-10.22,14.32Z"/><path d="M15,37.27a1.54,1.54,0,0,1-.46-.08,1.45,1.45,0,0,1-1-1.3,34.23,34.23,0,0,1,1.64-11c.36-1.35.7-2.63,1-4a7.17,7.17,0,0,1,.83-7.3,3.32,3.32,0,0,1,4-1c2.72,1.07,1.74,4.15.88,6.86-.61,1.89-1.23,3.86-.61,4.91a2,2,0,0,0,1.49.88c2.54.51,4.07-1.54,4.76-2.81,1.77-3.28,2-8.71-.31-11.07a7.86,7.86,0,0,0-9.32-1.16A8.34,8.34,0,0,0,13,19a4.07,4.07,0,0,0,.66,1.52,3.63,3.63,0,0,1,.72,2.39,1.88,1.88,0,0,1-.93,1.43,1.84,1.84,0,0,1-1.72.05C9.34,23.22,8.23,20.81,8.36,17c.24-6.69,6-10.93,11.29-11.52,7.53-.84,13.61,3,14.46,9.22a14.87,14.87,0,0,1-3.39,12,8.89,8.89,0,0,1-7.37,2.87h0a6.48,6.48,0,0,1-3.51-1.44l-.4-.28c-.64,3.27-1.48,6.57-3.35,8.88A1.46,1.46,0,0,1,15,37.27Zm4.61-23.89a2.45,2.45,0,0,0-1.86.94,6.1,6.1,0,0,0-.63,6.31l.1.16,0,.19c-.29,1.42-.67,2.83-1,4.2a33.49,33.49,0,0,0-1.6,10.66.43.43,0,0,0,.31.4.46.46,0,0,0,.52-.15c1.85-2.3,2.64-5.79,3.28-9.16l.13-.71.62.37c.39.24.73.48,1.06.71a5.63,5.63,0,0,0,3,1.27h0A7.91,7.91,0,0,0,30,26c2.47-2.62,3.7-7,3.13-11.18-.88-6.38-7.39-9-13.36-8.37C14.88,7,9.58,10.88,9.36,17c-.12,3.42.78,5.47,2.83,6.43a.92.92,0,0,0,.81,0,.86.86,0,0,0,.42-.67A2.61,2.61,0,0,0,12.84,21a5.15,5.15,0,0,1-.79-1.88,9.27,9.27,0,0,1,5.3-9.75,8.83,8.83,0,0,1,10.48,1.35c2.71,2.74,2.42,8.65.48,12.25-1.39,2.57-3.52,3.78-5.84,3.31a3,3,0,0,1-2.15-1.35c-.85-1.44-.16-3.62.51-5.72,1-3.05,1.44-5-.29-5.63A2.64,2.64,0,0,0,19.56,13.38Z"/><path d="M42.62,42.61H0V0H42.62ZM1,41.61H41.62V1H1Z"/></g></g></svg>